<?xml version="1.0" encoding="UTF-8"?>
<svg id="Layer_2" data-name="Layer 2" xmlns="http://www.w3.org/2000/svg" viewBox="0 0 53.68 53.68">
  <defs>
    <style>
      .cls-1 {
        fill: #ed1c24;
      }

      .cls-2 {
        fill: #fff;
      }
    </style>
  </defs>
  <g id="Layer_1-2" data-name="Layer 1">
    <g>
      <path class="cls-1" d="M26.84,0C12.02,0,0,12.02,0,26.84c0,10.37,5.89,19.36,14.49,23.83v-29.64c0-1.76,1.42-3.18,3.18-3.18h9.44c6.67,0,12.07,5.41,12.07,12.07h0c0,5.25-3.35,9.7-8.02,11.37-.7.25-1.43-.25-1.43-.99v-8.96c0-1.35-.98-2.55-2.33-2.68-.95-.09-2.43.32-2.32,2.41v17.88c0,.54-.19,1.05-.52,1.46-.15.19-.31.36-.52.5l-3.1,2.13c1.89.42,3.86.66,5.88.66,14.82,0,26.84-12.02,26.84-26.84S41.67,0,26.84,0Z"/>
      <path class="cls-2" d="M24.57,50.4c.32-.41.52-.92.52-1.46v-17.88c-.11-2.09,1.37-2.5,2.32-2.41,1.34.13,2.33,1.34,2.33,2.68v8.96c0,.74.74,1.24,1.43.99,4.68-1.66,8.02-6.12,8.02-11.37h0c0-6.67-5.41-12.07-12.07-12.07h-9.44c-1.76,0-3.18,1.42-3.18,3.18v29.64c2.02,1.05,4.18,1.85,6.46,2.36l3.1-2.13c.2-.14.37-.31.52-.5Z"/>
    </g>
  </g>
</svg>