<?xml version="1.0" encoding="UTF-8"?>
<svg id="Layer_2" xmlns="http://www.w3.org/2000/svg" viewBox="0 0 314.71 206.62">
  <defs>
    <style>
      .cls-1 {
        fill: #ed1c24;
      }
    </style>
  </defs>
  <g id="Layer_1-2" data-name="Layer_1">
    <g id="_x34_0L9SD">
      <g>
        <path class="cls-1" d="M0,140.24c1.2-3.34.73-6.87,1.12-10.3,3.1-27.55,8.78-54.47,19.84-80.02,5.81-13.43,13.36-25.78,24.21-35.88C57.11,2.94,71.29-1.15,87.29.48c15.83,1.61,30.98,6.49,46.46,9.75,10.08,2.12,20.1,4.61,30.63,3.08,13.39-1.94,26.39-5.47,39.51-8.58C213.33,2.48,222.77.29,232.57.02c16.91-.46,30.57,6.14,41.74,18.52,12.32,13.64,19.81,29.91,25.55,47.11,7.84,23.48,12.7,47.55,14.34,72.27.89,13.44.85,26.8-1.99,40.03-1.47,6.87-3.98,13.35-8.53,18.82-7.73,9.28-17.77,11.28-29.12,8.97-10.44-2.13-19.48-7.27-28.18-13.09-9.29-6.21-18.23-12.98-26.18-20.81-11.78-11.61-25.95-17.95-42.04-20.4-20.11-3.07-39.97-2.27-59.32,4.65-7.31,2.62-13.84,6.5-19.62,11.71-11.41,10.3-23.05,20.33-36.27,28.29-7.46,4.49-15.17,8.46-23.91,9.96-15.52,2.67-27.61-3.97-33.63-18.62-2.9-7.07-4.29-14.48-4.77-22.08-.09-1.42.04-2.88-.65-4.21v-20.9ZM14.59,151.79c.03,9.66.49,19.23,3.72,28.47,3.24,9.26,9.83,13.06,19.33,10.87,6.55-1.51,12.5-4.45,18.19-7.93,11.95-7.29,22.43-16.46,32.79-25.77,9.32-8.37,20.19-13.83,32.16-17.21,24.42-6.9,48.87-6.94,73.24.11,10.7,3.1,20.58,7.93,28.96,15.5,9.65,8.72,19.26,17.5,30.15,24.7,7.86,5.19,15.9,10.09,25.47,11.59,7.58,1.19,12.64-1.23,16.11-8.14,3.99-7.95,4.98-16.61,5.25-25.32.81-25.89-3.4-51.15-10.17-76.03-4.69-17.25-10.99-33.81-21.73-48.37-11.44-15.51-26.73-21.47-45.67-18.56-10.42,1.6-20.6,4.27-30.81,6.79-10.33,2.55-20.72,4.96-31.34,5.59-10.8.64-21.31-1.96-31.8-4.31-13.25-2.96-26.21-7.23-39.8-8.64-13.2-1.38-24.91,1.88-34.77,11.09-8.94,8.35-14.94,18.69-19.61,29.77-12.9,30.61-18.94,62.68-19.7,95.8Z"/>
        <path class="cls-1" d="M127.92,82.82c-.07,10.81-7.8,20.21-18.44,22.19-1.67.31-2.34.76-2.66,2.55-1.93,10.68-11.61,18.56-22.51,18.53-10.96-.03-20.15-7.73-22.22-18.69-.29-1.56-.96-2.08-2.55-2.36-11.04-1.92-18.9-11.31-18.95-22.41-.04-11.01,7.54-20.16,18.58-22.33,1.64-.32,2.65-.84,2.99-2.79,1.84-10.46,11.37-18.3,22.22-18.5,10.42-.19,20.56,7.96,22.39,18.3.37,2.07,1.25,2.68,3.04,3.03,10.55,2.1,18.17,11.61,18.11,22.48ZM84.47,53.33c-4.57-.01-7.87,3.07-8.21,7.77-.12,1.63-.04,3.27-.05,4.91-.04,5.16-2.93,8.19-8.07,8.4-1.74.07-3.49-.08-5.22.08-4.88.45-7.81,3.65-7.7,8.23.1,4.27,3.28,7.38,7.98,7.69,1.73.11,3.48.01,5.22.05,4.62.09,7.6,3.02,7.78,7.68.07,1.84-.06,3.69.07,5.52.32,4.61,3.47,7.67,7.87,7.78,4.63.11,7.76-2.5,8.37-7.16.25-1.92.12-3.88.21-5.82.2-4.26,2.43-6.87,6.64-7.44,2.32-.32,4.69-.22,7.03-.4,4.33-.34,7.33-3.58,7.38-7.88.05-4.43-3.02-7.93-7.38-8.26-1.83-.14-3.68-.02-5.52-.05-4.85-.08-7.82-2.9-8.14-7.7-.15-2.24.1-4.48-.38-6.72-.9-4.26-3.63-6.65-7.87-6.66Z"/>
        <path class="cls-1" d="M253.43,68.93c7.52,0,13.64,6.01,13.78,13.53.14,7.41-6.36,13.96-13.82,13.93-7.47-.03-13.63-6.18-13.66-13.66-.04-7.76,5.96-13.8,13.7-13.8Z"/>
        <path class="cls-1" d="M197.59,68.93c7.74-.04,13.85,5.99,13.85,13.66,0,7.51-6.01,13.63-13.54,13.79-7.41.16-13.97-6.31-13.97-13.79,0-7.44,6.18-13.63,13.65-13.67Z"/>
        <path class="cls-1" d="M239.26,110.35c.04,7.54-6.03,13.75-13.53,13.84-7.6.09-13.9-6.21-13.84-13.85.06-7.56,6.19-13.68,13.7-13.68,7.5,0,13.63,6.14,13.67,13.69Z"/>
        <path class="cls-1" d="M239.25,54.75c0,7.63-5.96,13.63-13.58,13.67-7.74.04-13.87-6.1-13.77-13.81.1-7.59,6.2-13.6,13.76-13.56,7.59.05,13.59,6.1,13.6,13.69Z"/>
      </g>
    </g>
  </g>
</svg>