<?xml version="1.0" encoding="UTF-8"?>
<svg id="Layer_2" xmlns="http://www.w3.org/2000/svg" viewBox="0 0 490.12 436.3">
  <defs>
    <style>
      .cls-1 {
        fill: #ed1c24;
      }
    </style>
  </defs>
  <g id="Layer_1-2" data-name="Layer_1">
    <g id="okRJp5">
      <g>
        <path class="cls-1" d="M234.45.09c62.7,0,125.4.09,188.09-.07,15.42-.04,28.39,4.58,37.86,17.19,6.24,8.3,8.47,17.84,8.46,28.09-.03,57.21.03,114.42-.1,171.63-.01,4.83,1.09,8.93,3.46,13.14,44.63,79.17,1.96,179.24-86.03,201.92-59.67,15.38-123.27-11.23-154.07-64.65-2.2-3.81-4.46-5.22-8.9-5.21-59.2.16-118.41.13-177.62.1-21.23-.01-37.12-10.66-43.18-28.84-1.64-4.92-2.39-9.99-2.39-15.18C.05,226.9.11,135.6,0,44.29-.03,19.33,18.48-.39,44.86,0c25.27.38,50.56.08,75.83.08,37.92,0,75.84,0,113.75,0ZM447.16,197.21c0-26.46-.06-51.73.06-77,.02-3.89-2.38-3.19-4.6-3.19-27.27-.01-54.55,0-81.82,0-111.26,0-222.52,0-333.78-.03-3.22,0-5.44-.24-5.43,4.45.17,65.86.09,131.71.14,197.57,0,12.8,8.87,21.71,21.6,21.72,57.38.05,114.75,0,172.13.1,3.85,0,4.29-.9,3.23-4.46-6.49-21.91-7.38-44.19-2.91-66.53,18.8-94.12,128.77-140.88,209.69-89.32,7.41,4.72,14.22,10.21,21.69,16.7ZM468.53,298.06c-.23-64.44-53.13-117.38-117.07-117.17-64.57.21-116.29,52.67-116.06,117.71.22,63.74,53.18,116.29,116.98,116.1,64.22-.19,116.38-52.57,116.15-116.64ZM234.49,95.33c69.17,0,138.34-.04,207.51.09,4.07,0,5.35-.92,5.27-5.16-.27-15.46-.09-30.93-.12-46.39,0-2.31,0-4.6-.69-6.9-3.08-10.36-10.91-15.59-23.75-15.59-125.54,0-251.08,0-376.62,0-1,0-2-.01-2.99.03-12.95.59-21.3,9.15-21.36,22.06-.07,15.13-.05,30.26,0,45.39.02,7.38-.91,6.46,6.24,6.46,68.84.03,137.68.02,206.52.02Z"/>
        <path class="cls-1" d="M112.23,297.59c-14.61,0-29.23-.09-43.84.07-3.41.04-4.77-.86-4.54-4.44.28-4.47.24-8.97,0-13.44-.16-3.14,1.05-3.91,4.02-3.9,29.56.09,59.11.09,88.67,0,2.96,0,4.18.72,4.01,3.88-.24,4.47-.27,8.98,0,13.44.22,3.54-1.04,4.51-4.5,4.47-14.61-.17-29.22-.07-43.84-.07Z"/>
        <path class="cls-1" d="M85.54,234.52c-5.97,0-11.94-.08-17.91.04-2.71.06-3.89-.79-3.77-3.69.2-4.8.16-9.62.01-14.43-.08-2.52.66-3.52,3.35-3.49,12.11.12,24.22.1,36.32.01,2.33-.02,3.23.67,3.16,3.09-.14,5.14-.15,10.29,0,15.42.07,2.5-1.03,3.11-3.26,3.08-5.97-.08-11.94-.03-17.91-.03Z"/>
        <path class="cls-1" d="M170.94,213c5.64,0,11.29.13,16.92-.05,2.86-.09,4.29.55,4.13,3.78-.23,4.64-.2,9.3,0,13.93.13,3.15-1.23,3.94-4.13,3.91-11.45-.11-22.9-.13-34.35.01-3.14.04-4.56-.79-4.38-4.17.23-4.3.24-8.64,0-12.94-.19-3.36.78-4.73,4.39-4.55,5.79.29,11.61.08,17.42.08Z"/>
        <path class="cls-1" d="M280.14,273.97c.4.56,1.13,1.93,2.18,2.98,18.3,18.36,36.72,36.61,54.9,55.09,2.86,2.91,4.31,3.09,7.27.1,25.37-25.62,50.97-51.03,76.37-76.63,2.65-2.67,4.32-3.3,6.97-.12,2.76,3.3,5.92,6.31,9.14,9.18,2.41,2.14,2.46,3.54.06,5.89-10.82,10.56-21.44,21.33-32.13,32.03-20.21,20.21-40.49,40.36-60.57,60.7-2.8,2.83-4.19,2.69-6.92-.06-23.51-23.73-47.12-47.36-70.87-70.85-2.86-2.83-2.79-4.41.1-6.91,3.38-2.93,6.38-6.3,9.58-9.45.79-.78,1.41-1.89,3.93-1.95Z"/>
      </g>
    </g>
  </g>
</svg>